<svg width="1121" height="325" viewBox="0 0 1121 325" fill="none" xmlns="http://www.w3.org/2000/svg">
<path d="M197.821 74.8711L198.657 74.3229L198.65 74.3113L198.642 74.3L197.821 74.8711ZM507.321 323.462L507.379 322.463L507.321 323.462ZM794.321 201.962L794.784 202.848L794.321 201.962ZM946.474 181.867L946.696 180.892L946.474 181.867ZM1110.78 282.136C1112.17 284.732 1115.41 285.709 1118 284.317C1120.6 282.925 1121.58 279.693 1120.18 277.097C1118.79 274.501 1115.56 273.524 1112.96 274.916C1110.37 276.307 1109.39 279.54 1110.78 282.136ZM1.93689 43.2497C3.17333 42.2837 4.56537 41.2367 6.0995 40.1256L4.92641 38.5058C3.37462 39.6296 1.96303 40.6913 0.705605 41.6736L1.93689 43.2497ZM14.7419 34.2136C17.4936 32.4274 20.4783 30.5721 23.6582 28.695L22.6415 26.9727C19.4368 28.8645 16.4279 30.7346 13.6529 32.536L14.7419 34.2136ZM32.7856 23.557C35.7885 21.9473 38.9089 20.3534 42.123 18.8048L41.2548 17.003C38.0134 18.5648 34.8674 20.1718 31.8407 21.7943L32.7856 23.557ZM51.6609 14.4777C54.85 13.122 58.1018 11.8326 61.3958 10.6344L60.7122 8.75486C57.3824 9.96602 54.0977 11.2686 50.8784 12.6372L51.6609 14.4777ZM71.3249 7.35625C74.6823 6.36438 78.0609 5.48878 81.4409 4.75404L81.016 2.79968C77.5844 3.54566 74.1583 4.43373 70.7583 5.43819L71.3249 7.35625ZM91.7168 2.97779C93.4491 2.75965 95.176 2.58559 96.8947 2.45895L96.7478 0.464355C94.993 0.59365 93.2318 0.771212 91.4669 0.993458L91.7168 2.97779ZM96.8947 2.45895C98.6286 2.33119 100.38 2.3172 102.146 2.40974L102.251 0.412483C100.405 0.315764 98.5695 0.330122 96.7478 0.464355L96.8947 2.45895ZM112.555 4.09637C115.875 4.97419 119.22 6.16284 122.569 7.61616L123.365 5.78147C119.936 4.29344 116.496 3.06959 113.066 2.1628L112.555 4.09637ZM132.078 12.4192C135.109 14.1572 138.124 16.0754 141.104 18.1374L142.242 16.4926C139.22 14.4021 136.158 12.4532 133.073 10.6841L132.078 12.4192ZM149.691 24.5281C152.474 26.7429 155.21 29.0563 157.885 31.4356L159.214 29.9413C156.515 27.5398 153.75 25.2026 150.936 22.9631L149.691 24.5281ZM165.726 38.7554C168.315 41.2858 170.824 43.8498 173.237 46.4125L174.693 45.0416C172.262 42.4599 169.734 39.876 167.124 37.3251L165.726 38.7554ZM180.446 54.3761C182.889 57.182 185.193 59.9402 187.336 62.6023L188.894 61.3481C186.735 58.6664 184.415 55.8884 181.954 53.0627L180.446 54.3761ZM193.89 71.1014C195.003 72.6133 196.041 74.0644 197 75.4421L198.642 74.3C197.673 72.9069 196.624 71.4413 195.501 69.9157L193.89 71.1014ZM196.984 75.4193C197.894 76.8073 198.821 78.2066 199.766 79.6168L201.428 78.504C200.487 77.0992 199.563 75.7053 198.657 74.3229L196.984 75.4193ZM205.521 88.0408C207.431 90.7832 209.399 93.5599 211.423 96.3668L213.045 95.197C211.027 92.3987 209.066 89.6309 207.162 86.8978L205.521 88.0408ZM217.46 104.604C219.464 107.297 221.516 110.013 223.612 112.748L225.2 111.532C223.109 108.803 221.063 106.095 219.064 103.41L217.46 104.604ZM229.85 120.775C231.929 123.414 234.046 126.068 236.201 128.733L237.756 127.476C235.607 124.817 233.495 122.17 231.422 119.538L229.85 120.775ZM242.659 136.623C244.814 139.222 247.001 141.829 249.22 144.443L250.744 143.148C248.531 140.541 246.348 137.94 244.199 135.346L242.659 136.623ZM255.859 152.171C258.072 154.716 260.313 157.265 262.581 159.814L264.075 158.484C261.812 155.941 259.577 153.398 257.369 150.859L255.859 152.171ZM269.399 167.39C271.679 169.894 273.982 172.396 276.309 174.894L277.773 173.531C275.451 171.039 273.152 168.542 270.878 166.043L269.399 167.39ZM283.294 182.307C285.631 184.759 287.988 187.204 290.365 189.64L291.796 188.243C289.425 185.813 287.073 183.373 284.742 180.927L283.294 182.307ZM297.526 196.895C299.924 199.296 302.341 201.686 304.773 204.063L306.171 202.633C303.744 200.261 301.334 197.877 298.941 195.481L297.526 196.895ZM312.103 211.139C314.563 213.484 317.037 215.814 319.526 218.126L320.887 216.661C318.405 214.355 315.937 212.031 313.484 209.692L312.103 211.139ZM327.035 225.014C329.558 227.297 332.092 229.56 334.638 231.802L335.959 230.3C333.421 228.065 330.893 225.808 328.377 223.532L327.035 225.014ZM342.34 238.486C344.929 240.701 347.528 242.891 350.136 245.054L351.413 243.515C348.813 241.358 346.222 239.175 343.64 236.967L342.34 238.486ZM358.023 251.494C360.686 253.633 363.356 255.742 366.032 257.819L367.258 256.239C364.591 254.169 361.93 252.067 359.275 249.935L358.023 251.494ZM374.148 264.004C376.884 266.05 379.625 268.06 382.368 270.031L383.535 268.407C380.803 266.443 378.072 264.441 375.346 262.402L374.148 264.004ZM390.693 275.888C393.519 277.832 396.346 279.733 399.172 281.587L400.269 279.915C397.456 278.069 394.641 276.176 391.827 274.24L390.693 275.888ZM407.778 287.089C410.692 288.902 413.603 290.663 416.511 292.368L417.523 290.643C414.631 288.947 411.734 287.195 408.835 285.391L407.778 287.089ZM425.376 297.402C428.385 299.052 431.388 300.64 434.382 302.162L435.288 300.379C432.314 298.867 429.33 297.289 426.338 295.648L425.376 297.402ZM443.581 306.637C446.714 308.092 449.835 309.469 452.942 310.765L453.712 308.919C450.63 307.634 447.533 306.267 444.424 304.823L443.581 306.637ZM462.467 314.495C465.717 315.683 468.948 316.776 472.159 317.769L472.75 315.858C469.573 314.876 466.373 313.794 463.154 312.617L462.467 314.495ZM482.018 320.514C485.385 321.345 488.725 322.057 492.035 322.644L492.384 320.675C489.12 320.096 485.824 319.393 482.497 318.572L482.018 320.514ZM502.186 324.059C503.888 324.229 505.581 324.363 507.264 324.46L507.379 322.463C505.724 322.368 504.059 322.236 502.384 322.069L502.186 324.059ZM507.264 324.46C508.91 324.555 510.562 324.624 512.218 324.669L512.271 322.67C510.636 322.626 509.005 322.557 507.379 322.463L507.264 324.46ZM522.151 324.645C525.441 324.543 528.746 324.35 532.063 324.07L531.895 322.077C528.612 322.354 525.343 322.545 522.089 322.646L522.151 324.645ZM541.929 322.995C545.189 322.56 548.457 322.049 551.732 321.465L551.381 319.496C548.134 320.075 544.894 320.582 541.665 321.012L541.929 322.995ZM561.459 319.525C564.67 318.819 567.885 318.047 571.102 317.216L570.601 315.279C567.407 316.105 564.215 316.871 561.029 317.572L561.459 319.525ZM580.656 314.573C583.811 313.645 586.966 312.663 590.12 311.63L589.497 309.73C586.362 310.756 583.227 311.732 580.091 312.654L580.656 314.573ZM599.492 308.417C602.591 307.307 605.686 306.153 608.775 304.959L608.054 303.094C604.979 304.282 601.9 305.43 598.818 306.534L599.492 308.417ZM617.966 301.282C621.01 300.024 624.046 298.731 627.073 297.405L626.271 295.573C623.256 296.893 620.233 298.181 617.203 299.433L617.966 301.282ZM636.1 293.347C639.095 291.966 642.08 290.557 645.051 289.124L644.182 287.323C641.221 288.751 638.247 290.155 635.263 291.531L636.1 293.347ZM653.929 284.753C656.881 283.271 659.819 281.768 662.739 280.248L661.816 278.474C658.903 279.989 655.975 281.488 653.032 282.966L653.929 284.753ZM671.484 275.622C674.398 274.055 677.293 272.476 680.167 270.887L679.2 269.137C676.332 270.722 673.444 272.298 670.537 273.86L671.484 275.622ZM688.794 266.056C691.677 264.421 694.537 262.781 697.37 261.139L696.367 259.409C693.539 261.048 690.685 262.685 687.808 264.316L688.794 266.056ZM705.899 256.148C708.76 254.459 711.59 252.772 714.389 251.093L713.36 249.378C710.565 251.055 707.738 252.739 704.882 254.426L705.899 256.148ZM722.848 245.982C725.697 244.25 728.508 242.531 731.28 240.83L730.234 239.125C727.464 240.825 724.655 242.543 721.809 244.273L722.848 245.982ZM739.693 235.65C742.545 233.889 745.35 232.154 748.103 230.451L747.051 228.75C744.298 230.453 741.494 232.188 738.643 233.948L739.693 235.65ZM756.518 225.255C759.394 223.483 762.205 221.757 764.949 220.084L763.908 218.376C761.16 220.051 758.346 221.779 755.469 223.552L756.518 225.255ZM773.403 214.975C776.324 213.229 779.153 211.562 781.886 209.983L780.885 208.252C778.143 209.836 775.305 211.509 772.377 213.259L773.403 214.975ZM790.484 205.145C791.953 204.344 793.387 203.577 794.784 202.848L793.858 201.075C792.45 201.811 791.005 202.583 789.527 203.389L790.484 205.145ZM794.784 202.848C796.257 202.079 797.718 201.33 799.17 200.601L798.271 198.814C796.811 199.548 795.34 200.302 793.858 201.075L794.784 202.848ZM807.987 196.342C811.027 194.934 814.019 193.614 816.964 192.376L816.189 190.532C813.222 191.78 810.208 193.11 807.147 194.527L807.987 196.342ZM826.059 188.754C829.192 187.578 832.27 186.496 835.296 185.504L834.672 183.603C831.619 184.605 828.514 185.696 825.356 186.882L826.059 188.754ZM844.673 182.66C847.895 181.765 851.057 180.97 854.162 180.27L853.722 178.319C850.584 179.026 847.391 179.829 844.137 180.733L844.673 182.66ZM863.756 178.366C867.046 177.803 870.272 177.345 873.438 176.981L873.21 174.994C870.007 175.362 866.745 175.826 863.419 176.395L863.756 178.366ZM883.181 176.14C886.503 175.947 889.759 175.856 892.955 175.852L892.953 173.852C889.72 173.856 886.426 173.949 883.066 174.143L883.181 176.14ZM902.728 176.113C906.04 176.291 909.29 176.557 912.483 176.894L912.693 174.905C909.468 174.565 906.184 174.296 902.836 174.115L902.728 176.113ZM922.195 178.148C925.466 178.644 928.682 179.203 931.851 179.805L932.224 177.84C929.034 177.234 925.793 176.671 922.495 176.171L922.195 178.148ZM941.463 181.774C943.069 182.124 944.665 182.481 946.252 182.842L946.696 180.892C945.104 180.53 943.502 180.172 941.889 179.82L941.463 181.774ZM946.252 182.842C947.71 183.174 949.264 183.582 950.908 184.064L951.47 182.144C949.793 181.653 948.199 181.234 946.696 180.892L946.252 182.842ZM960.143 187.169C963.021 188.242 966.064 189.457 969.245 190.8L970.023 188.957C966.82 187.605 963.75 186.379 960.841 185.295L960.143 187.169ZM978.193 194.742C981.073 196.059 984.033 197.456 987.058 198.922L987.931 197.123C984.893 195.65 981.919 194.247 979.025 192.923L978.193 194.742ZM995.84 203.283C998.708 204.739 1001.62 206.245 1004.56 207.794L1005.49 206.025C1002.54 204.471 999.623 202.96 996.745 201.499L995.84 203.283ZM1013.19 212.426C1016.05 213.979 1018.91 215.564 1021.78 217.176L1022.76 215.431C1019.88 213.816 1017.01 212.227 1014.15 210.669L1013.19 212.426ZM1030.31 222.028C1033.14 223.661 1035.97 225.314 1038.78 226.978L1039.8 225.257C1036.98 223.589 1034.15 221.933 1031.31 220.295L1030.31 222.028ZM1047.2 232.024C1050.01 233.734 1052.8 235.45 1055.55 237.166L1056.61 235.469C1053.85 233.749 1051.06 232.029 1048.23 230.315L1047.2 232.024ZM1063.85 242.413C1066.64 244.204 1069.38 245.987 1072.06 247.754L1073.16 246.085C1070.48 244.313 1067.73 242.525 1064.93 240.729L1063.85 242.413ZM1080.21 253.232C1082.99 255.129 1085.67 256.996 1088.24 258.824L1089.4 257.194C1086.82 255.359 1084.13 253.484 1081.34 251.581L1080.21 253.232ZM1096.17 264.616C1098.95 266.699 1101.54 268.707 1103.91 270.622L1105.17 269.067C1102.77 267.134 1100.17 265.111 1097.37 263.016L1096.17 264.616ZM1111.32 276.965C1112.6 278.142 1113.75 279.259 1114.76 280.311L1116.2 278.922C1115.15 277.836 1113.97 276.691 1112.67 275.494L1111.32 276.965Z" fill="#6959C9" fill-opacity="0.14"/>
</svg>
