<svg width="924" height="252" viewBox="0 0 924 252" fill="none" xmlns="http://www.w3.org/2000/svg">
<path d="M1.83586 0.861289C1.5331 0.399386 0.91322 0.270375 0.451316 0.573135C-0.0105873 0.875895 -0.139599 1.49578 0.163161 1.95768L1.83586 0.861289ZM310.5 250L310.558 249.002L310.5 250ZM597.5 128.5L597.963 129.387L597.5 128.5ZM749.653 108.406L749.431 109.381L749.653 108.406ZM913.961 208.675C915.353 211.271 918.585 212.247 921.181 210.855C923.777 209.464 924.754 206.231 923.362 203.635C921.971 201.039 918.738 200.063 916.142 201.454C913.546 202.846 912.57 206.079 913.961 208.675ZM0.163161 1.95768C1.07294 3.34568 2.00017 4.74506 2.94447 6.15521L4.60629 5.04239C3.66556 3.63758 2.74196 2.24367 1.83586 0.861289L0.163161 1.95768ZM8.69969 14.5792C10.6095 17.3216 12.5778 20.0983 14.6019 22.9052L16.2241 21.7354C14.2062 18.9371 12.2443 16.1694 10.3409 13.4362L8.69969 14.5792ZM20.6383 31.1422C22.6427 33.8351 24.6944 36.5511 26.7912 39.2868L28.3786 38.0701C26.2873 35.3417 24.2413 32.6332 22.2426 29.948L20.6383 31.1422ZM33.0291 47.3139C35.1076 49.9526 37.2251 52.6062 39.3799 55.2717L40.9352 54.0144C38.7857 51.3554 36.6735 48.7084 34.6003 46.0764L33.0291 47.3139ZM45.8381 63.1611C47.9923 65.7603 50.1797 68.3679 52.3985 70.9811L53.9231 69.6867C51.7094 67.0794 49.5271 64.4779 47.378 61.8849L45.8381 63.1611ZM59.0381 78.7093C61.2509 81.2548 63.4918 83.8031 65.7593 86.3519L67.2536 85.0225C64.9912 82.4795 62.7553 79.9369 60.5476 77.3972L59.0381 78.7093ZM72.5776 93.9282C74.8573 96.4324 77.1612 98.9347 79.4879 101.433L80.9514 100.069C78.6299 97.5771 76.3311 95.0805 74.0566 92.5818L72.5776 93.9282ZM86.4726 108.845C88.8093 111.297 91.1667 113.742 93.5434 116.178L94.975 114.782C92.6037 112.351 90.2517 109.912 87.9204 107.466L86.4726 108.845ZM100.705 123.433C103.103 125.834 105.519 128.224 107.952 130.602L109.35 129.171C106.923 126.8 104.513 124.415 102.12 122.02L100.705 123.433ZM115.282 137.678C117.742 140.023 120.216 142.352 122.704 144.665L124.066 143.2C121.584 140.893 119.116 138.569 116.662 136.23L115.282 137.678ZM130.214 151.553C132.736 153.836 135.271 156.099 137.816 158.34L139.138 156.839C136.6 154.604 134.072 152.347 131.556 150.07L130.214 151.553ZM145.519 165.025C148.108 167.239 150.707 169.43 153.315 171.593L154.592 170.053C151.992 167.897 149.401 165.713 146.819 163.505L145.519 165.025ZM161.201 178.032C163.864 180.171 166.535 182.28 169.211 184.357L170.437 182.777C167.77 180.707 165.108 178.605 162.454 176.473L161.201 178.032ZM177.327 190.542C180.063 192.588 182.804 194.598 185.547 196.57L186.714 194.946C183.981 192.982 181.251 190.979 178.525 188.94L177.327 190.542ZM193.872 202.426C196.698 204.371 199.524 206.271 202.351 208.126L203.448 206.453C200.634 204.607 197.82 202.715 195.006 200.779L193.872 202.426ZM210.957 213.627C213.871 215.44 216.782 217.201 219.69 218.907L220.702 217.181C217.81 215.485 214.913 213.733 212.014 211.929L210.957 213.627ZM228.555 223.94C231.564 225.591 234.567 227.179 237.561 228.7L238.467 226.917C235.492 225.406 232.508 223.828 229.517 222.187L228.555 223.94ZM246.76 233.175C249.893 234.63 253.014 236.007 256.121 237.303L256.891 235.457C253.809 234.172 250.712 232.805 247.602 231.361L246.76 233.175ZM265.646 241.034C268.895 242.222 272.127 243.314 275.338 244.307L275.929 242.396C272.752 241.414 269.552 240.332 266.332 239.155L265.646 241.034ZM285.197 247.052C288.564 247.883 291.904 248.595 295.213 249.183L295.563 247.214C292.299 246.634 289.002 245.931 285.676 245.11L285.197 247.052ZM305.364 250.597C307.066 250.767 308.759 250.901 310.442 250.998L310.558 249.002C308.903 248.906 307.238 248.775 305.563 248.607L305.364 250.597ZM310.442 250.998C312.089 251.093 313.741 251.163 315.396 251.207L315.45 249.208C313.815 249.164 312.184 249.096 310.558 249.002L310.442 250.998ZM325.329 251.183C328.62 251.081 331.925 250.888 335.242 250.609L335.074 248.616C331.791 248.892 328.521 249.083 325.267 249.184L325.329 251.183ZM345.108 249.533C348.368 249.099 351.636 248.587 354.911 248.003L354.56 246.034C351.313 246.613 348.073 247.12 344.844 247.55L345.108 249.533ZM364.638 246.063C367.848 245.357 371.063 244.586 374.28 243.754L373.78 241.818C370.585 242.644 367.394 243.409 364.208 244.11L364.638 246.063ZM383.835 241.112C386.99 240.183 390.145 239.201 393.298 238.169L392.676 236.268C389.541 237.294 386.405 238.27 383.27 239.193L383.835 241.112ZM402.671 234.955C405.77 233.846 408.865 232.692 411.954 231.497L411.232 229.632C408.158 230.821 405.079 231.969 401.997 233.072L402.671 234.955ZM421.145 227.82C424.189 226.563 427.225 225.269 430.252 223.944L429.449 222.111C426.435 223.432 423.412 224.72 420.381 225.972L421.145 227.82ZM439.279 219.885C442.274 218.505 445.258 217.096 448.23 215.663L447.361 213.861C444.4 215.29 441.426 216.693 438.441 218.069L439.279 219.885ZM457.108 211.292C460.06 209.809 462.997 208.306 465.918 206.786L464.994 205.012C462.082 206.528 459.154 208.026 456.211 209.504L457.108 211.292ZM474.662 202.16C477.577 200.594 480.472 199.014 483.346 197.425L482.378 195.675C479.511 197.26 476.622 198.836 473.716 200.398L474.662 202.16ZM491.973 192.594C494.856 190.96 497.715 189.319 500.549 187.678L499.546 185.947C496.718 187.586 493.864 189.223 490.987 190.854L491.973 192.594ZM509.078 182.686C511.938 180.997 514.769 179.31 517.568 177.631L516.538 175.916C513.743 177.593 510.917 179.278 508.061 180.964L509.078 182.686ZM526.026 172.521C528.875 170.789 531.687 169.07 534.459 167.368L533.413 165.664C530.643 167.364 527.834 169.081 524.988 170.812L526.026 172.521ZM542.872 162.188C545.724 160.427 548.529 158.692 551.282 156.99L550.23 155.289C547.476 156.992 544.673 158.726 541.821 160.486L542.872 162.188ZM559.697 151.793C562.572 150.021 565.384 148.295 568.128 146.622L567.086 144.915C564.339 146.59 561.525 148.318 558.648 150.09L559.697 151.793ZM576.582 141.514C579.503 139.768 582.332 138.1 585.065 136.522L584.064 134.79C581.321 136.374 578.484 138.047 575.556 139.797L576.582 141.514ZM593.663 131.683C595.132 130.882 596.566 130.116 597.963 129.387L597.037 127.614C595.628 128.349 594.184 129.121 592.706 129.927L593.663 131.683ZM597.963 129.387C599.436 128.618 600.897 127.869 602.348 127.139L601.45 125.352C599.99 126.086 598.519 126.84 597.037 127.614L597.963 129.387ZM611.166 122.88C614.206 121.473 617.198 120.152 620.143 118.914L619.368 117.07C616.4 118.318 613.387 119.648 610.326 121.065L611.166 122.88ZM629.238 115.293C632.37 114.117 635.448 113.035 638.475 112.042L637.851 110.142C634.798 111.143 631.693 112.235 628.535 113.421L629.238 115.293ZM647.852 109.199C651.074 108.303 654.236 107.509 657.341 106.808L656.901 104.857C653.763 105.565 650.569 106.367 647.316 107.272L647.852 109.199ZM666.935 104.904C670.225 104.342 673.451 103.883 676.617 103.52L676.388 101.533C673.186 101.901 669.924 102.364 666.598 102.933L666.935 104.904ZM686.36 102.678C689.682 102.486 692.938 102.394 696.134 102.391L696.132 100.391C692.899 100.394 689.605 100.487 686.244 100.681L686.36 102.678ZM705.907 102.651C709.219 102.83 712.469 103.095 715.662 103.433L715.872 101.444C712.647 101.103 709.363 100.835 706.015 100.654L705.907 102.651ZM725.374 104.687C728.644 105.183 731.86 105.741 735.03 106.343L735.403 104.378C732.213 103.772 728.972 103.21 725.674 102.709L725.374 104.687ZM744.642 108.313C746.248 108.663 747.844 109.02 749.431 109.381L749.874 107.43C748.283 107.068 746.681 106.71 745.068 106.359L744.642 108.313ZM749.431 109.381C750.889 109.712 752.443 110.121 754.087 110.602L754.649 108.683C752.972 108.192 751.378 107.772 749.874 107.43L749.431 109.381ZM763.322 113.708C766.2 114.78 769.243 115.996 772.424 117.338L773.201 115.496C769.998 114.144 766.929 112.917 764.02 111.834L763.322 113.708ZM781.372 121.28C784.252 122.597 787.212 123.994 790.237 125.461L791.11 123.661C788.072 122.189 785.098 120.785 782.204 119.462L781.372 121.28ZM799.019 129.821C801.887 131.277 804.797 132.783 807.735 134.333L808.668 132.564C805.721 131.01 802.802 129.499 799.924 128.038L799.019 129.821ZM816.373 138.964C819.224 140.517 822.091 142.103 824.962 143.714L825.941 141.97C823.062 140.355 820.188 138.765 817.33 137.208L816.373 138.964ZM833.49 148.566C836.322 150.2 839.15 151.852 841.961 153.517L842.98 151.796C840.162 150.127 837.328 148.471 834.489 146.834L833.49 148.566ZM850.374 158.562C853.189 160.273 855.977 161.989 858.728 163.705L859.787 162.008C857.029 160.288 854.234 158.567 851.412 156.853L850.374 158.562ZM867.027 168.951C869.821 170.743 872.562 172.526 875.237 174.292L876.339 172.624C873.656 170.852 870.908 169.064 868.107 167.268L867.027 168.951ZM883.394 179.771C886.169 181.667 888.848 183.535 891.416 185.362L892.576 183.733C889.997 181.897 887.307 180.023 884.522 178.119L883.394 179.771ZM899.354 191.154C902.131 193.237 904.718 195.245 907.088 197.161L908.345 195.605C905.954 193.672 903.347 191.649 900.554 189.554L899.354 191.154ZM914.497 203.504C915.776 204.68 916.927 205.797 917.942 206.849L919.381 205.461C918.334 204.375 917.153 203.23 915.851 202.032L914.497 203.504Z" fill="#6959C9" fill-opacity="0.19"/>
</svg>
