<svg width="40" height="34" viewBox="0 0 40 34" fill="none" xmlns="http://www.w3.org/2000/svg">
<path d="M27.0799 15.4401C23.8759 12.2001 20.7799 9.05605 17.6719 5.93605C14.4199 2.68405 9.73994 2.64805 6.57194 5.81605C3.43994 8.94805 3.48794 13.6761 6.72794 16.9401C11.1799 21.4161 15.6439 25.8681 20.1199 30.3201C20.4559 30.6561 20.8519 30.9201 21.3559 31.3401C20.3719 32.2161 19.5439 32.9481 18.5599 33.8241C14.5999 29.8161 10.5919 25.7601 6.58394 21.6921C5.73194 20.8281 4.86794 19.9761 4.02794 19.1121C-0.280061 14.7201 -0.220061 7.74805 4.15994 3.36805C8.49194 -0.97595 15.5719 -1.03595 19.9399 3.27205C23.1079 6.40405 26.2159 9.59605 29.3479 12.7521C29.4079 12.8121 29.4319 12.8961 29.5039 13.0281C28.7479 13.7721 27.9919 14.5281 27.0799 15.4401Z" fill="#FF3471"/>
<path d="M24.4039 6.27206C23.7079 5.46806 23.0359 4.68806 22.3759 3.92006C24.5479 1.53206 28.9999 0.728056 32.4199 2.06006C39.2359 4.71206 41.3239 13.1121 36.3559 18.4881C33.0439 22.0641 29.4559 25.3881 25.9879 28.82C25.8079 29 25.6039 29.156 25.4239 29.312C22.2799 26.1201 19.1599 22.9641 15.9199 19.6761C16.5799 19.1361 17.4079 18.4761 18.4039 17.6841C20.4799 19.8921 22.7719 22.3281 25.4959 25.2201C26.3239 24.1401 26.8639 23.2881 27.5479 22.5801C29.5039 20.5641 31.5199 18.6081 33.4879 16.6161C36.1039 13.9761 36.4039 10.0881 34.2199 7.31606C32.0239 4.53206 28.2799 3.95606 25.0159 5.90005C24.8479 6.02005 24.6679 6.11606 24.4039 6.27206Z" fill="white"/>
</svg>
