<svg width="42" height="26" viewBox="0 0 42 26" fill="none" xmlns="http://www.w3.org/2000/svg">
<path d="M39.7538 25.431H2.69263C2.64934 25.4027 2.60339 25.3787 2.55545 25.3593C1.38399 25.0115 0.718409 24.1671 0.716266 22.9438C0.709121 16.2013 0.709121 9.45882 0.716266 2.71633C0.705853 2.38158 0.765052 2.04831 0.890124 1.73755C1.0152 1.42679 1.20343 1.1453 1.44294 0.910845C1.97883 0.381079 2.64869 0.214123 3.38608 0.214123C15.2843 0.218403 27.1811 0.218403 39.0765 0.214123C39.2635 0.213702 39.4504 0.22514 39.6359 0.248369C40.1313 0.308379 40.5954 0.522132 40.9626 0.859494C41.3299 1.19686 41.5819 1.64081 41.683 2.12877C41.7056 2.2358 41.7388 2.33212 41.7656 2.43379V23.1878C41.6948 23.4802 41.6061 23.7679 41.4998 24.0493C41.1632 24.8071 40.5159 25.1934 39.7538 25.431ZM8.84896 12.464C9.5842 12.464 10.3194 12.4726 11.0547 12.464C12.1768 12.448 13.0193 11.7149 13.0696 10.5997C13.1254 9.34858 13.1254 8.08999 13.0696 6.83781C13.0203 5.73975 12.1865 4.997 11.089 4.98523C9.60564 4.97025 8.12229 4.97025 6.63894 4.98523C5.45998 4.997 4.63363 5.84891 4.62506 7.0251C4.61649 8.15955 4.61649 9.294 4.62506 10.4284C4.63363 11.5993 5.47498 12.4448 6.64644 12.4619C7.37954 12.4737 8.11479 12.463 8.84896 12.464ZM10.387 17.8516H4.48144V20.2008H10.387V17.8516ZM13.6934 17.8409V20.1954H19.5882V17.8409H13.6934ZM28.7681 20.2083V17.843H22.8732V20.2083H28.7681ZM37.98 17.8473H32.0788V20.1901H37.98V17.8473Z" fill="#AFAFAF"/>
</svg>
