<svg width="1109" height="1275" viewBox="0 0 1109 1275" fill="none" xmlns="http://www.w3.org/2000/svg">
<path d="M967.995 637.272C967.995 787.394 838.413 909.146 678.5 909.146C518.586 909.146 389.005 787.394 389.005 637.272C389.005 487.149 518.586 365.398 678.5 365.398C838.413 365.398 967.995 487.149 967.995 637.272Z" stroke="black" stroke-opacity="0.09"/>
<path d="M1130.7 637.272C1130.7 871.795 928.274 1061.97 678.5 1061.97C428.725 1061.97 226.298 871.795 226.298 637.272C226.298 402.749 428.725 212.578 678.5 212.578C928.274 212.578 1130.7 402.749 1130.7 637.272Z" stroke="black" stroke-opacity="0.09"/>
<path d="M1356.5 637.272C1356.5 988.922 1052.98 1274.04 678.5 1274.04C304.021 1274.04 0.5 988.922 0.5 637.272C0.5 285.621 304.021 0.5 678.5 0.5C1052.98 0.5 1356.5 285.621 1356.5 637.272Z" stroke="black" stroke-opacity="0.09"/>
</svg>
